<?xml version="1.0" encoding="utf-8"?>
<!-- Generator: Adobe Illustrator 17.0.2, SVG Export Plug-In . SVG Version: 6.00 Build 0)  -->
<!DOCTYPE svg PUBLIC "-//W3C//DTD SVG 1.1//EN" "http://www.w3.org/Graphics/SVG/1.1/DTD/svg11.dtd">
<svg version="1.1" id="Layer_1" xmlns="http://www.w3.org/2000/svg" xmlns:xlink="http://www.w3.org/1999/xlink" x="0px" y="0px"
	 width="40px" height="40px" viewBox="0 0 40 40" enable-background="new 0 0 40 40" xml:space="preserve">
<g>
	<g>
		<path fill="#FFFFFF" d="M40,40H0V0h40V40L40,40z M1.693,38.307h36.614V1.693H1.693V38.307L1.693,38.307z"/>
	</g>
</g>
<polygon fill="#FFFFFF" points="13.158,30.952 9.096,20 6.204,20 6.204,34.401 8.316,34.401 8.316,23.524 12.278,34.204 
	13.96,34.204 17.922,23.613 17.922,34.401 20.034,34.401 20.034,20 17.201,20 "/>
<path fill="#FFFFFF" d="M30.532,29.001h-2.206H26.12l2.158-6.352l0.048-0.143l0.048,0.143L30.532,29.001z M34.008,34.401v-1.659
	L29.515,20h-1.189h-1.189l-4.491,12.737v1.663h1.651l1.123-3.309h2.906h2.906l1.122,3.309H34.008z"/>
</svg>
